<?xml version="1.0" standalone="no"?>
<!DOCTYPE svg PUBLIC "-//W3C//DTD SVG 1.1//EN" "http://www.w3.org/Graphics/SVG/1.1/DTD/svg11.dtd" >
<svg xmlns="http://www.w3.org/2000/svg">
<metadata>Generated by IcoMoon</metadata>
<defs>
<font id="ikona_icons" horiz-adv-x="1024">
<font-face units-per-em="1024" ascent="960" descent="-64" />
<missing-glyph horiz-adv-x="1024" />
<glyph unicode="&#x20;" horiz-adv-x="512" d="" />
<glyph unicode="&#xe900;" glyph-name="Heart_in_footer" horiz-adv-x="1015" d="M904.219 457.692c-46.292-134.35-268.705-357.527-395.604-359.121h-2.292c-126.903 1.591-349.315 224.767-395.669 359.121-48.838 141.675 10.507 289.716 132.505 330.72 19.531 5.726 41.97 9.018 65.18 9.018 82.569 0 155.398-41.686 198.594-105.161 44.268 63.473 117.097 105.161 199.666 105.161 23.21 0 45.648-3.292 66.876-9.44 120.304-40.584 179.711-188.627 130.747-330.303z" />
<glyph unicode="&#xe901;" glyph-name="Next" d="M368.48 32l429.52 416-429.52 416-142.48-135.72 289.12-280.28-289.12-280.28z" />
<glyph unicode="&#xe902;" glyph-name="Prev" d="M655.676 32l-429.676 416 429.676 416 142.324-135.72-289.328-280.28 289.328-280.28z" />
<glyph unicode="&#xe903;" glyph-name="mail" d="M116 160v576h792v-576h-792zM836 601l-324-250.488-324 250.488v-369h648v369z" />
<glyph unicode="&#xe904;" glyph-name="Blockquotes" horiz-adv-x="1027" d="M899.247 767.98c-49.841-10.864-93.839-30.217-132.624-56.661-74.752-50.127-133.519-121.587-167.716-205.658-16.444-39.385-25.542-81.631-25.941-125.957-0.042-1.955-0.065-4.075-0.065-6.202 0-36.999 6.958-72.37 19.638-104.882 11.104-28.173 28.333-53.851 49.998-75.007 20.228-19.413 43.962-35.274 70.141-46.537 25.518-10.804 53.331-17.45 82.482-19.054 22.826 5.059 42.032 15.67 57.389 30.285 18.267 16.934 33.816 36.555 46.073 58.281 13.251 23.124 22.644 48.664 27.328 75.82 2.025 11.563 3.065 23.275 3.065 35.234 0 17.114-2.137 33.733-6.162 49.597-31.467 8.598-58.796 20.461-84.58 34.763-23.918 13.623-46.042 32.503-63.992 54.876-0.475 2.855-0.546 5.678-0.546 8.52 0 20.3 3.775 39.717 10.664 57.59 8.422 22.725 20.191 43.322 34.778 61.562 15.515 19.682 33.523 37.082 53.607 51.821 21.224 15.559 45.062 27.517 70.773 35.103zM409.823 767.98c-49.841-10.854-93.841-30.213-132.621-56.661-74.78-50.102-133.554-121.57-167.723-205.662-16.454-39.383-25.561-81.627-25.973-125.949-0.040-1.925-0.063-4.005-0.063-6.088 0-37.039 6.956-72.45 19.636-105.006 11.127-28.163 28.366-53.838 50.032-75 20.219-19.427 43.954-35.293 70.144-46.54 25.503-10.797 53.302-17.444 82.443-19.054 22.834 5.045 42.042 15.656 57.39 30.283 18.293 16.929 33.853 36.553 46.112 58.284 13.25 23.122 22.644 48.662 27.325 75.817 2.033 11.584 3.080 23.327 3.080 35.314 0 17.085-2.131 33.674-6.141 49.515-31.477 8.591-58.819 20.454-84.611 34.763-23.917 13.611-46.032 32.494-63.961 54.875-0.472 2.833-0.545 5.625-0.545 8.435 0 20.328 3.775 39.774 10.66 57.679 8.446 22.721 20.225 43.312 34.813 61.561 15.505 19.685 33.515 37.086 53.604 51.818 21.214 15.552 45.042 27.509 70.741 35.101z" />
<glyph unicode="&#xe905;" glyph-name="Arrow_up" horiz-adv-x="1037" d="M786.699 474.68l-226.061 223.535v-666.074h-87.468v666.074l-222.933-220.465-61.879 61.19 328.561 324.919 331.719-327.989z" />
<glyph unicode="&#xe906;" glyph-name="Cross_back" d="M927.863 152.849l-120.683-120.683-295.578 295.606-292.023-292.023-120 119.886 292.052 292.023-295.522 295.578 120.683 120.683 295.578-295.578 292.023 292.081 120.028-119.973-292.023-292.023z" />
<glyph unicode="&#xe907;" glyph-name="Cross" d="M816.223 663.070c-0.54-0.54-0.917-1.077-1.509-1.618l-212.859-212.913 212.859-212.913c1.455-1.618 2.426-3.235 3.827-4.85l109.96-109.96-4.421-4.313c-0.592-0.54-0.97-1.618-1.509-2.155l-22.369-22.101c-0.54-0.54-1.24-1.077-1.832-1.618l-59.291-59.291-327.132 327.186-212.481-212.374c-0.54-0.54-1.24-1.077-1.832-1.618l-113.196-113.196-89.316 89.477 327.24 327.186-327.24 327.186 89.316 89.477 110.338-110.5c1.725-1.127 3.227-2.373 4.576-3.766l212.759-212.382 326.809 326.646 58-58.214c1.166-0.566 2.165-1.289 3.016-2.155l-31.585 31.802c1.455-1.618 2.426-3.235 3.772-4.85l56.113-56.059z" />
<glyph unicode="&#xe908;" glyph-name="Heart" d="M850.168 112.564c-110.197-107.551-443.912-99.617-576.325-35.262-77.061 36.688-136.115 100.781-165.362 179.375-9.88 27.011-15.175 55.636-15.175 85.497 0 39.482 9.257 76.803 25.717 109.908 45.875 83.396 134.571 139.95 236.478 139.95 4.735 0 9.44-0.122 14.114-0.363-0.864 3.994-0.982 8.64-0.982 13.313 0 101.837 56.45 190.49 139.765 236.377 33.025 16.528 70.311 25.79 109.756 25.79 29.888 0 58.535-5.317 85.045-15.058 79.238-29.222 143.475-88.174 179.452-163.248l0.836-1.934c64.266-132.676 72.068-466.349-33.322-574.34z" />
<glyph unicode="&#xe909;" glyph-name="Wave" horiz-adv-x="1034" d="M926.631 716.431c-46.159-46.292-100.634-37.235-144.241-30.191-40.926 6.709-65.11 9.393-85.809-11.068s-17.948-44.949-11.27-85.876c7.146-43.945 16.033-98.286-30.191-144.241s-100.634-37.235-144.241-30.191c-40.957 6.709-65.146 9.393-85.876-11.406s-17.948-44.949-11.27-85.876c7.146-43.608 16.002-97.953-30.191-144.241s-100.634-37.235-144.241-30.191c-40.957 6.709-65.146 9.393-85.876-11.068-1.139-1.341-1.981-2.349-2.984-3.689l-47.333 47.298c0.971 1.237 2.005 2.332 3.127 3.334 46.182 46.313 100.662 37.594 144.271 30.214 40.993-6.709 65.178-9.393 85.909 11.406s17.948 44.949 11.27 85.876c-7.146 43.608-16.002 97.953 30.191 144.241s100.634 37.235 144.241 30.191c40.993-6.709 65.146-9.393 85.876 11.068s17.948 44.949 11.238 85.876c-7.146 43.945-16.002 98.286 30.191 144.241s100.634 37.235 144.241 30.191c40.957-6.709 65.11-9.393 85.809 11.406 1.403 1.578 2.67 3.335 3.746 5.215l47.68-47.483c-1.542-1.679-2.616-3.355-4.259-5.030z" />
<glyph unicode="&#xe90a;" glyph-name="Pinterest" d="M512 32c-229.751 0-416 186.249-416 416s186.249 416 416 416c229.751 0 416-186.249 416-416s-186.249-416-416-416zM512 842.16c-217.626-0.019-394.038-176.444-394.038-394.074 0-217.64 176.432-394.074 394.074-394.074 217.611 0 394.024 176.383 394.074 393.983 0 0.016 0 0.028 0 0.040 0 217.664-176.445 394.114-394.107 394.126zM511.532 90.934c-0.152 0-0.333 0-0.514 0-37.559 0-73.755 5.831-107.734 16.637 20.153 26.24 35.195 57.219 46.079 90.090 5.159 19.459 23.065 87.754 23.065 87.754 17.505-24.993 46.168-41.136 78.602-41.136 1.141 0 2.28 0.019 3.412 0.058 107.544-0.006 185.147 99.143 185.147 222.209 0 117.866-96.27 206.094-220.134 206.094-154.11 0-235.958-103.306-235.958-215.974 0-52.346 27.89-117.694 72.488-138.32 6.76-3.294 10.4-1.906 11.942 4.68 1.178 5.026 7.21 29.294 9.914 40.56 0.256 0.874 0.405 1.878 0.405 2.916 0 2.828-1.098 5.401-2.889 7.317-16.561 22.536-26.522 50.832-26.565 81.451-0.001 0.155-0.001 0.327-0.001 0.499 0 85.391 69.222 154.614 154.614 154.614 2.317 0 4.621-0.051 6.913-0.151 87.397 0.011 148.844-59.789 148.844-145.242 0-96.546-48.794-163.626-112.268-163.626-0.735-0.037-1.595-0.058-2.463-0.058-28.719 0-52 23.281-52 52 0 4.516 0.576 8.897 1.658 13.072 9.99 42.105 29.508 87.865 29.508 118.545 0 27.386-14.734 50.266-45.188 50.266-35.846 0-64.618-37.094-64.618-86.666-0.007-0.507-0.011-1.107-0.011-1.707 0-18.566 3.933-36.212 11.014-52.153s-35.703-148.94-42.203-176.675c-2.862-16.62-4.496-35.759-4.496-55.283 0-16.634 1.188-32.988 3.481-48.988-134.125 55.346-227.008 183.969-227.008 334.284 0 197.204 159.865 357.066 357.066 357.066s357.066-159.865 357.066-357.066c0-197.204-159.865-357.066-357.066-357.066-0.035 0-0.072 0-0.107 0z" />
<glyph unicode="&#xe90b;" glyph-name="Tumbler" horiz-adv-x="1021" d="M647.395 184.701c-68.876-1.514-82.309 47.495-82.309 81.552v246.174h160.080v142.482h-160.080v210.602h-125.641c-3.149-0.216-5.648-2.718-5.865-5.846-7.57-65.3-38.979-179.589-168.974-224.054v-121.669h98.583v-258.094c0-93.475 58.47-225.359 245.229-222.522 62.82 1.514 133.022 26.68 147.97 49.008l-41.818 118.641c-19.647-9.454-42.615-15.359-66.86-16.263z" />
<glyph unicode="&#xe90c;" glyph-name="eye" d="M512 652.749c159.136 0 296.131-151.704 338.872-204.492-42.691-52.789-179.378-205.005-338.872-205.005s-296.077 152.216-338.822 205.005c42.745 52.789 179.686 204.492 338.822 204.492zM512 704.512c-181.839 0-329.288-157.855-384.384-225.504l-24.806-30.752 24.806-30.752c54.994-68.164 202.44-226.016 384.384-226.016s329.39 157.855 384.384 226.016l24.806 30.752-24.806 30.752c-54.994 67.651-202.494 225.504-384.384 225.504v0zM511.948 550.248c-56.586-0.028-102.448-45.912-102.448-102.504 0 0 0 0 0 0 0-56.612 45.892-102.504 102.504-102.504s102.504 45.892 102.504 102.504c0 56.612-45.892 102.504-102.504 102.504zM512 498.994c28.306 0 51.25-22.946 51.25-51.25s-22.946-51.25-51.25-51.25c-28.306 0-51.25 22.946-51.25 51.25 0 0 0 0 0 0 0 28.286 22.916 51.222 51.196 51.25z" />
<glyph unicode="&#xe90d;" glyph-name="facebook" horiz-adv-x="1037" d="M582.709 31.987v380.163h125.226l18.774 147.415h-144v94.506c0 42.881 11.306 72.107 71.894 72.107h77.228v132.268c-31.878 3.544-68.84 5.567-106.272 5.567-2.24 0-4.478-0.007-6.713-0.021-111.017 0.002-187.177-68.48-187.177-195.199v-109.227h-126.508v-147.415h126.508v-380.163h151.041z" />
<glyph unicode="&#xe90e;" glyph-name="instagram" d="M512 789.12c111.13 0 124.207-0.593 168.183-2.377 27.856-0.422 54.349-5.726 78.837-15.090 34.849-13.516 63.118-41.785 76.849-77.288 9.147-23.832 14.451-50.325 14.873-78.003 1.786-44.156 2.379-57.232 2.379-168.362s-0.593-124.207-2.377-168.183c-0.422-27.856-5.726-54.349-15.090-78.837-13.516-34.849-41.785-63.118-77.288-76.849-23.832-9.147-50.325-14.451-78.003-14.873-44.156-1.786-57.232-2.379-168.362-2.379s-124.207 0.593-168.183 2.377c-27.856 0.422-54.349 5.726-78.837 15.090-34.849 13.516-63.118 41.785-76.849 77.288-9.147 23.832-14.451 50.325-14.873 78.003-1.786 44.156-2.379 57.232-2.379 168.362s0.593 124.207 2.377 168.183c0.422 27.856 5.726 54.349 15.090 78.837 13.516 34.849 41.785 63.118 77.288 76.849 23.832 9.147 50.325 14.451 78.003 14.873 44.156 1.786 57.232 2.379 168.362 2.379zM512 864c-112.913 0-127.177-0.593-171.45-2.377-36.497-0.877-71.099-7.884-103.174-20.026-53.878-21.554-97.415-65.090-119.174-119.669-11.94-31.376-18.947-65.978-19.817-102.098-1.789-44.651-2.385-58.914-2.385-171.827s0.593-127.177 2.377-171.45c0.877-36.497 7.884-71.099 20.026-103.174 10.403-26.686 26.768-51.263 47.392-71.516 20.249-20.701 44.853-36.991 72.344-47.412 31.292-12.144 65.902-19.27 102.069-20.065 44.61-1.787 58.873-2.384 171.788-2.384s127.177 0.593 171.45 2.377c36.506 0.8 71.116 7.925 103.098 20.317 54.003 21.214 97.541 64.752 118.966 119.391 12.181 31.349 19.306 65.956 20.102 102.126 1.787 44.61 2.384 58.873 2.384 171.788s-0.593 127.177-2.377 171.45c-0.8 36.506-7.925 71.116-20.317 103.098-10.172 26.799-26.464 51.402-47.097 71.584-20.319 20.691-44.895 37.056-72.327 47.695-31.33 11.908-65.929 18.916-102.052 19.784-44.651 1.789-58.914 2.385-171.827 2.385v0zM512 661.647c-117.994 0-213.647-95.652-213.647-213.647s95.652-213.647 213.647-213.647c117.994 0 213.647 95.652 213.647 213.647-0.018 117.986-95.66 213.629-213.645 213.647zM512 309.233c-76.639 0-138.767 62.128-138.767 138.767s62.128 138.767 138.767 138.767c76.639 0 138.767-62.128 138.767-138.767 0-0.008 0-0.019 0-0.031 0-76.622-62.114-138.736-138.736-138.736-0.010 0-0.020 0-0.032 0zM783.887 669.967c0-27.569-22.351-49.92-49.92-49.92s-49.92 22.351-49.92 49.92c0 27.569 22.351 49.92 49.92 49.92 0 0 0 0 0 0 27.542-0.068 49.852-22.378 49.92-49.913z" />
<glyph unicode="&#xe90f;" glyph-name="twitter" horiz-adv-x="1029" d="M935.022 716.87c-28.752-13.645-62.121-23.556-97.192-27.989 34.219 22.439 60.98 56.666 73.573 97.14-31.011-18.43-67.552-33.445-106.592-41.684-33.335 34.084-78.199 55.656-128.1 55.663-95.441-1.498-172.232-79.216-172.232-174.871 0-0.969 0.006-1.935 0.024-2.899 0.028-14.271 1.705-28.275 4.846-41.719-144.766 9.602-271.329 79.993-354.706 185.959-15.438-24.677-24.074-55.464-24.074-88.269 0-0.016 0-0.031 0-0.049-0.002-0.273-0.004-0.599-0.004-0.927 0-60.564 30.056-114.108 76.063-146.534-28.271 0.579-55.016 8.703-78.205 22.251l0.791-2.592c-0.008-0.674-0.016-1.468-0.016-2.263 0-83.832 58.513-153.995 136.922-171.884-12.305-4.181-27.802-6.454-43.829-6.454-0.071 0-0.144 0-0.214 0s-0.17 0-0.269 0c-11.401 0-22.53 1.182-33.263 3.434 22.577-70.632 86.011-121.393 161.629-123.648-57.656-47.382-132.441-76.092-213.933-76.092-14.312 0-28.417 0.885-42.262 2.604 75.85-50.209 167.271-80.042 265.655-80.043 316.8 0 490.092 270.77 490.092 505.795 0 7.583-0.269 15.434-0.543 23.017 33.923 25.48 62.439 55.974 85.002 90.696z" />
<glyph unicode="&#xe910;" glyph-name="Vk" horiz-adv-x="1022" d="M492.596 229.248h47.877c8.385 0.891 15.872 4.162 21.927 9.119 4.032 5.387 6.503 12.269 6.503 19.725 0 0.156-0.003 0.312-0.003 0.469s-0.928 62.137 28.891 71.41c29.395 8.852 67.137-59.633 107.149-85.972 12.465-9.468 28.242-15.167 45.35-15.167 2.783 0 5.53 0.151 8.231 0.443l106.648-0.031s55.966 4.003 29.502 46.147c-2.106 3.583-15.447 31.187-79.547 88.293-67.094 59.633-58.096 49.939 22.715 153.194 49.203 63.007 68.883 101.354 62.733 117.791-5.859 15.592-41.786 12.852-41.786 12.852l-120.723 0.209c-0.976 0.14-2.099 0.22-3.244 0.22-10.65 0-19.687-6.907-22.879-16.485-14.134-35.553-29.070-65.436-46.161-93.875-52.021-84.56-73.472-89.197-82.239-83.718-20.4 12.643-15.297 50.781-15.297 77.754 0 84.711 13.379 120.11-26.086 129.17-14.4 3.448-30.929 5.428-47.924 5.428-2.918 0-5.823-0.058-8.712-0.175-6.88 0.713-15.352 1.113-23.92 1.113-26.942 0-52.966-3.942-77.52-11.284-11.804-6.042-22.362-20.372-15.914-21.215 14.071-1.195 26.472-7.508 35.502-17.044 7.565-14.339 11.99-31.31 11.99-49.309 0-1.044-0.017-2.086-0.045-3.127s7.106-99.519-16.557-111.949c-16.247-8.428-38.521 9.061-86.396 88.081-14.379 23.954-28.786 52.344-41.261 81.754-4.055 9.791-7.427 14.102-11.606 17.441-5.359 3.482-11.585 5.987-18.265 7.174l-114.764 0.045c-0.003 0-0.010 0-0.015 0-8.851 0-17.016-2.928-23.582-7.868-1.414-2.887-2.305-6.385-2.305-10.088 0-3.339 0.723-6.511 2.018-9.366s89.54-202.359 191.020-303.713c50.323-52.507 120.466-85.677 198.362-87.444z" />
<glyph unicode="&#xe911;" glyph-name="check" horiz-adv-x="1047" d="M971.501 645.564l-556.801-549.568-156.545 154.433 0.579 0.579-183.233 180.736 156.545 154.433 183.101-180.67 399.809 394.497z" />
<glyph unicode="&#xe912;" glyph-name="triangle" horiz-adv-x="1023" d="M511.516 64.383l-431.015 767.233h861.999zM354.159 672.79l157.358-280.082 157.358 280.082h-314.715z" />
<glyph unicode="&#xe913;" glyph-name="logo" horiz-adv-x="1017" d="M161.073 543.827l0.66-191.781h153.653l-101.453 90.154 91.78 101.672-144.638-0.045zM497.619 447.957c0-52.993-42.961-95.957-95.957-95.957s-95.957 42.961-95.957 95.957c0 52.993 42.961 95.957 95.957 95.957s95.957-42.961 95.957-95.957zM536.319 544.001l0.528-191.958h168.384l0.705 191.823-39.535 0.132v-130.829l-130.082 130.829zM830.558 543.869l-102.113-191.781 208.359-0.090-106.247 191.868zM80.198 543.869h39.535v-191.868h-39.535v191.868z" />
<glyph unicode="&#xe914;" glyph-name="search" d="M687.086 339.053c40.65 54.036 65.101 122.267 65.101 196.211 0 181.281-146.959 328.241-328.241 328.241s-328.241-146.959-328.241-328.241c0-181.281 146.959-328.241 328.241-328.241 74.274 0 142.785 24.669 197.787 66.259l239.681-241.485 66.179 66.404zM658.725 535.695c-0.15-129.374-105.062-234.193-234.457-234.193-129.487 0-234.457 104.971-234.457 234.457s104.971 234.457 234.457 234.457c129.506-0.214 234.415-105.23 234.457-234.756z" />
<glyph unicode="&#xe915;" glyph-name="play" horiz-adv-x="1015" d="M274.782 32.046v831.907l721.439-415.895zM367.187 700.2v-504.59l437.785 252.295z" />
<glyph unicode="&#xe916;" glyph-name="arr_right" horiz-adv-x="1046" d="M709.155 191.611l-64.318 65.040 143.732 145.844h-703.257v90.588h700.54l-144.335 146.266 64.619 65.040 254.551-258.020z" />
<glyph unicode="&#xe917;" glyph-name="arr_left" horiz-adv-x="1050" d="M971.765 400.101h-716.498l143.163-143.131-65.37-65.37-254.827 254.768 258.095 258.033 65.402-65.402-146.492-146.433h716.529v-92.462z" />
<glyph unicode="&#xe918;" glyph-name="microphone" horiz-adv-x="1029" d="M514.505 863.99c-0.813 0.017-1.769 0.026-2.727 0.026-77.401 0-140.403-61.655-142.571-138.533l-0.005-242.849c3.611-77.438 67.271-138.852 145.275-138.852s141.662 61.414 145.262 138.527l0.012 242.973c-2.174 77.077-65.175 138.733-142.576 138.733-0.939 0-1.875-0.008-2.808-0.027zM187.645 482.692c4.265-162.789 129.754-294.97 289.288-309.77l1.26-140.942h72.623v140.847c160.795 14.892 286.283 147.072 290.541 309.445l-72.615 0.419c-6.052-135.731-117.562-243.479-254.237-243.479s-248.185 107.748-254.219 242.935l-72.641 0.543z" />
<glyph unicode="&#xe919;" glyph-name="Dn" d="M928 591.676l-416-429.676-416 429.676 135.72 142.324 280.28-289.328 280.28 289.328z" />
<glyph unicode="&#xe91a;" glyph-name="Up" d="M96 304.324l416 429.676 416-429.676-135.72-142.324-280.28 289.328-280.28-289.328z" />
<glyph unicode="&#xe91b;" glyph-name="map_pin" horiz-adv-x="1043" d="M521.487 16c0 0-318.315 369.882-318.315 545.685s142.514 318.315 318.315 318.315c175.801 0 318.315-142.514 318.315-318.315s-318.315-545.685-318.315-545.685zM521.487 425.263c75.344 0 136.422 61.078 136.422 136.422s-61.078 136.422-136.422 136.422c-75.344 0-136.422-61.078-136.422-136.422s61.078-136.422 136.422-136.422z" />
<glyph unicode="&#xe91c;" glyph-name="pause" horiz-adv-x="1018" d="M259.363 832h115.2v-768h-115.2v768zM643.363 832h115.2v-768h-115.2v768z" />
</font>
</defs>
</svg>
